# xmcd
#
# Track frame offsets:
#	150
#	14157
#	30625
#	43507
#	62280
#	74542
#	91890
#	105735
#	122470
#	136055
#	149365
#	161027
#
# Disc length: 2399 seconds
#
# Revision: 3
# Processed by: cddbd v1.5.1PL2 Copyright (c) Steve Scherf et al.
# Submitted via: dBpowerAMP V4.0
#
DISCID=a0095d0c
DTITLE=Mark Chesnutt - Greatest Hits
DYEAR=1996
DGENRE=Country
TTITLE0=Bubba Shot The Jukebox
TTITLE1=Too Cold At Home
TTITLE2=Blame It On Texas
TTITLE3=Almost Goodbye
TTITLE4=It's A Little Too Late
TTITLE5=Ol' Country
TTITLE6=Brother Jukebox
TTITLE7=Gonna Get A Life
TTITLE8=Let It Rain
TTITLE9=It Sure Is Monday
TTITLE10=Goin' Through The Big D
TTITLE11=I'll Think Of Something
EXTD=
EXTT0=
EXTT1=
EXTT2=
EXTT3=
EXTT4=
EXTT5=
EXTT6=
EXTT7=
EXTT8=
EXTT9=
EXTT10=
EXTT11=
PLAYORDER=
